{"title":"Match of the Day - FA Cup Highlights - 7th March 2015- hdtv x264","uid":11740465,"size":431420326,"categoryP":"video","categoryS":"tv_shows","magnet":"?xt=urn:btih:3fda16794ec756203bb3aa6143ae01ec00164420&amp;dn=Match+of+the+Day+-+FA+Cup+Highlights+-+7th+March+2015-+hdtv+x264&amp;tr=udp%3A%2F%2Ftracker.openbittorrent.com%3A80&amp;tr=udp%3A%2F%2Fopen.demonii.com%3A1337&amp;tr=udp%3A%2F%2Ftracker.coppersurfer.tk%3A6969&amp;tr=udp%3A%2F%2Fexodus.desync.com%3A6969","seeders":2,"leechers":0,"uploader":"rugbybill","files":2,"time":1425776712,"description":"SPORT: Match of the Day: FA Cup Highlights\nOn: BBC 1 HD  \nDate: Saturday 7th March 2015 \nTime: 23:15 to 23:55\n\nDan Walker presents highlights of the day's two FA Cup quarter-finals. Giant killers Bradford City take on Reading, looking to keep their excellent recent cup tradition going. The 2013 League Cup finalists are enjoying a majestic FA Cup run this season, having already knocked out Premier League leaders Chelsea at Stamford Bridge, and Sunderland at home in the last round. Reading's Cup has seen them drawn away in every round. Steve Clarke's side have won at Championship rivals Huddersfield, Cardiff and Derby to reach the last eight. The day's other quarter-final sees Aston Villa host West Bromwich Albion in an eagerly awaited West Midlands derby. The claret and blue colours of Villa have adorned the famous old trophy seven times, the last of which came 58 years ago in 1957. West Brom were last winners of the Cup in 1968.\n\n\nGeneral\nComplete name               : 2015.03.07.MOTD.FA.Cup.hdtv.x264.mp4\nFormat                      : MPEG-4\nFormat profile              : Base Media / Version 2\nCodec ID                    : mp42\nFile size                   : 411 MiB\nDuration                    : 40mn 26s\nOverall bit rate mode       : Variable\nOverall bit rate            : 1 423 Kbps\nWriting application         : #YGFD                     \n\nVideo\nID                          : 1\nFormat                      : AVC\nFormat/Info                 : Advanced Video Codec\nFormat profile              : &lt;a class=&quot;__cf_email__&quot; href=&quot;/cdn-cgi/l/email-protection&quot; data-cfemail=&quot;98d0f1fff0d8d4abb6a8&quot;&gt;[email&amp;#160;protected]&lt;/a&gt;&lt;script cf-hash='f9e31' type=&quot;text/javascript&quot;&gt;\n/* &lt;![CDATA[ */!function(){try{var t=&quot;currentScript&quot;in document?document.currentScript:function(){for(var t=document.getElementsByTagName(&quot;script&quot;),e=t.length;e--;)if(t[e].getAttribute(&quot;cf-hash&quot;))return t[e]}();if(t&amp;&amp;t.previousSibling){var e,r,n,i,c=t.previousSibling,a=c.getAttribute(&quot;data-cfemail&quot;);if(a){for(e=&quot;&quot;,r=parseInt(a.substr(0,2),16),n=2;a.length-n;n+=2)i=parseInt(a.substr(n,2),16)^r,e+=String.fromCharCode(i);e=document.createTextNode(e),c.parentNode.replaceChild(e,c)}}}catch(u){}}();/* ]]&gt; */&lt;/script&gt;\nFormat settings, CABAC      : Yes\nFormat settings, ReFrames   : 4 frames\nCodec ID                    : avc1\nCodec ID/Info               : Advanced Video Coding\nDuration                    : 40mn 26s\nBit rate                    : 1 300 Kbps\nWidth                       : 704 pixels\nHeight                      : 400 pixels\nDisplay aspect ratio        : 16:9\nFrame rate mode             : Constant\nFrame rate                  : 25.000 fps\nColor space                 : YUV\nChroma subsampling          : 4:2:0\nBit depth                   : 8 bits\nScan type                   : Progressive\nBits/(Pixel*Frame)          : 0.185\nStream size                 : 373 MiB (91%)\nWriting library             : x264 core 130 r2273 b3065e6\nEncoding settings           : cabac=1 / ref=3 / deblock=1:0:0 / analyse=0x3:0x113 / me=hex / subme=7 / psy=1 / psy_rd=1.00:0.00 / mixed_ref=1 / me_range=16 / chroma_me=1 / trellis=1 / 8x8dct=1 / cqm=0 / deadzone=21,11 / fast_pskip=1 / chroma_qp_offset=-2 / threads=6 / lookahead_threads=1 / sliced_threads=0 / nr=0 / decimate=1 / interlaced=0 / bluray_compat=0 / constrained_intra=0 / bframes=3 / b_pyramid=2 / b_adapt=1 / b_bias=0 / direct=1 / weightb=1 / open_gop=0 / weightp=2 / keyint=250 / keyint_min=25 / scenecut=40 / intra_refresh=0 / rc_lookahead=40 / rc=abr / mbtree=1 / bitrate=1300 / ratetol=1.0 / qcomp=0.60 / qpmin=0 / qpmax=69 / qpstep=4 / vbv_maxrate=12500 / vbv_bufsize=12500 / nal_hrd=none / ip_ratio=1.40 / aq=1:1.00\n\nAudio\nID                          : 2\nFormat                      : AAC\nFormat/Info                 : Advanced Audio Codec\nFormat profile              : LC\nCodec ID                    : 40\nDuration                    : 40mn 25s\nBit rate mode               : Variable\nBit rate                    : 128 Kbps\nMaximum bit rate            : 172 Kbps\nChannel(s)                  : 2 channels\nChannel positions           : Front: L R\nSampling rate               : 48.0 KHz\nCompression mode            : Lossy\nStream size                 : 37.0 MiB (9%)\nTitle                       : Stereo\nLanguage                    : English","torrent":{"xt":"urn:btih:3fda16794ec756203bb3aa6143ae01ec00164420","amp;dn":"Match+of+the+Day+-+FA+Cup+Highlights+-+7th+March+2015-+hdtv+x264","amp;tr":["udp%3A%2F%2Ftracker.openbittorrent.com%3A80","udp%3A%2F%2Fopen.demonii.com%3A1337","udp%3A%2F%2Ftracker.coppersurfer.tk%3A6969","udp%3A%2F%2Fexodus.desync.com%3A6969"],"infoHash":"3fda16794ec756203bb3aa6143ae01ec00164420","infoHashBuffer":{"type":"Buffer","data":[63,218,22,121,78,199,86,32,59,179,170,97,67,174,1,236,0,22,68,32]},"announce":[],"urlList":[]}}